<svg xmlns="http://www.w3.org/2000/svg" width="489.5875549316406" height="312.78179931640625" viewBox="-144.44711303710938 -80.4432144165039 489.5875549316406 312.78179931640625"><title>Neo4j Graph Visualization</title><desc>Created using Neo4j (http://www.neo4j.com/)</desc><g class="layer relationships"><g class="relationship" transform="translate(53.5591443319709 161.60879970363948) rotate(519.8436456456358)"><path class="outline" fill="#A5ABB6" stroke="none" d="M 25 0.5 L 26.34017967449553 0.5 L 26.34017967449553 -0.5 L 25 -0.5 Z M 87.76205467449553 0.5 L 89.10223434899106 0.5 L 89.10223434899106 3.5 L 96.10223434899106 0 L 89.10223434899106 -3.5 L 89.10223434899106 -0.5 L 87.76205467449553 -0.5 Z"/><text text-anchor="middle" pointer-events="none" font-size="8px" fill="#000000" x="57.05111717449553" y="3" transform="rotate(180 57.05111717449553 0)" font-family="sans-serif">FACTORS_A…</text></g><g class="relationship" transform="translate(53.5591443319709 161.60879970363948) rotate(308.4738951528179)"><path class="outline" fill="#A5ABB6" stroke="none" d="M 25 0.5 L 34.962133896019594 0.5 L 34.962133896019594 -0.5 L 25 -0.5 Z M 80.8176026460196 0.5 L 90.77973654203919 0.5 L 90.77973654203919 3.5 L 97.77973654203919 0 L 90.77973654203919 -3.5 L 90.77973654203919 -0.5 L 80.8176026460196 -0.5 Z"/><text text-anchor="middle" pointer-events="none" font-size="8px" fill="#000000" x="57.889868271019594" y="3" font-family="sans-serif">INSTANCE</text></g><g class="relationship" transform="translate(129.9475401020038 65.48556267422306) rotate(295.93693472145327)"><path class="outline" fill="#A5ABB6" stroke="none" d="M 25 0.5 L 29.620149301988164 0.5 L 29.620149301988164 -0.5 L 25 -0.5 Z M 93.40530555198816 0.5 L 98.02545485397633 0.5 L 98.02545485397633 3.5 L 105.02545485397633 0 L 98.02545485397633 -3.5 L 98.02545485397633 -0.5 L 93.40530555198816 -0.5 Z"/><text text-anchor="middle" pointer-events="none" font-size="8px" fill="#000000" x="61.512727426988164" y="3" font-family="sans-serif">ACTION_REQD</text></g><g class="relationship" transform="translate(129.9475401020038 65.48556267422306) rotate(533.3747978751368)"><path class="outline" fill="#A5ABB6" stroke="none" d="M 25 0.5 L 26.034422648638284 0.5 L 26.034422648638284 -0.5 L 25 -0.5 Z M 76.92895389863828 0.5 L 77.96337654727657 0.5 L 77.96337654727657 3.5 L 84.96337654727657 0 L 77.96337654727657 -3.5 L 77.96337654727657 -0.5 L 76.92895389863828 -0.5 Z"/><text text-anchor="middle" pointer-events="none" font-size="8px" fill="#000000" x="51.481688273638284" y="3" transform="rotate(180 51.481688273638284 0)" font-family="sans-serif">EQUIPME…</text></g><g class="relationship" transform="translate(129.9475401020038 65.48556267422306) rotate(333.6832608863547)"><path class="outline" fill="#A5ABB6" stroke="none" d="M 25 0.5 L 77.21052884695627 0.5 L 77.21052884695627 -0.5 L 25 -0.5 Z M 123.51131009695627 0.5 L 175.72183894391253 0.5 L 175.72183894391253 3.5 L 182.72183894391253 0 L 175.72183894391253 -3.5 L 175.72183894391253 -0.5 L 123.51131009695627 -0.5 Z"/><text text-anchor="middle" pointer-events="none" font-size="8px" fill="#000000" x="100.36091947195627" y="3" font-family="sans-serif">LOCATION</text></g><g class="relationship" transform="translate(129.9475401020038 65.48556267422306) rotate(369.01187703425126)"><path class="outline" fill="#A5ABB6" stroke="none" d="M 25 0.5 L 26.3525992400899 0.5 L 26.3525992400899 -0.5 L 25 -0.5 Z M 80.7979117400899 0.5 L 82.1505109801798 0.5 L 82.1505109801798 3.5 L 89.1505109801798 0 L 82.1505109801798 -3.5 L 82.1505109801798 -0.5 L 80.7979117400899 -0.5 Z"/><text text-anchor="middle" pointer-events="none" font-size="8px" fill="#000000" x="53.5752554900899" y="3" font-family="sans-serif">OCCURED…</text></g><g class="relationship" transform="translate(242.688964795002 83.36600772542826) rotate(476.72892784999857)"><path class="outline" fill="#A5ABB6" stroke="none" d="M 25 0.5 L 26.320605030784456 0.5 L 26.320605030784456 -0.5 L 25 -0.5 Z M 78.39482378078446 0.5 L 79.71542881156891 0.5 L 79.71542881156891 3.5 L 86.71542881156891 0 L 79.71542881156891 -3.5 L 79.71542881156891 -0.5 L 78.39482378078446 -0.5 Z"/><text text-anchor="middle" pointer-events="none" font-size="8px" fill="#000000" x="52.357714405784456" y="3" transform="rotate(180 52.357714405784456 0)" font-family="sans-serif">TIMESTAMP</text></g><g class="relationship" transform="translate(-16.282361948242425 -44.745531827984486) rotate(358.1112334847269)"><path class="outline" fill="#A5ABB6" stroke="none" d="M 25 0.5 L 74.43755439824119 0.5 L 74.43755439824119 -0.5 L 25 -0.5 Z M 121.77349189824119 0.5 L 171.21104629648238 0.5 L 171.21104629648238 3.5 L 178.21104629648238 0 L 171.21104629648238 -3.5 L 171.21104629648238 -0.5 L 121.77349189824119 -0.5 Z"/><text text-anchor="middle" pointer-events="none" font-size="8px" fill="#000000" x="98.10552314824119" y="3" font-family="sans-serif">WORK_ON</text></g><g class="relationship" transform="translate(20.718486530717122 78.17248655667444) rotate(253.2471261368098)"><path class="outline" fill="#A5ABB6" stroke="none" d="M 25 0.5 L 25.231968496468028 0.5 L 25.231968496468028 -0.5 L 25 -0.5 Z M 96.13431224646803 0.5 L 96.36628074293606 0.5 L 96.36628074293606 3.5 L 103.36628074293606 0 L 96.36628074293606 -3.5 L 96.36628074293606 -0.5 L 96.13431224646803 -0.5 Z"/><text text-anchor="middle" pointer-events="none" font-size="8px" fill="#000000" x="60.68314037146803" y="3" transform="rotate(180 60.68314037146803 0)" font-family="sans-serif">AGENTS_INVO…</text></g><g class="relationship" transform="translate(20.718486530717122 78.17248655667444) rotate(215.56990741877848)"><path class="outline" fill="#A5ABB6" stroke="none" d="M 25 0.5 L 31.08583847213633 0.5 L 31.08583847213633 -0.5 L 25 -0.5 Z M 105.23818222213633 0.5 L 111.32402069427266 0.5 L 111.32402069427266 3.5 L 118.32402069427266 0 L 111.32402069427266 -3.5 L 111.32402069427266 -0.5 L 105.23818222213633 -0.5 Z"/><text text-anchor="middle" pointer-events="none" font-size="8px" fill="#000000" x="68.16201034713633" y="3" transform="rotate(180 68.16201034713633 0)" font-family="sans-serif">CURRENT_STATE</text></g><g class="relationship" transform="translate(20.718486530717122 78.17248655667444) rotate(530.4364872761727)"><path class="outline" fill="#A5ABB6" stroke="none" d="M 25 0.5 L 33.27476812902643 0.5 L 33.27476812902643 -0.5 L 25 -0.5 Z M 97.80992437902643 0.5 L 106.08469250805285 0.5 L 106.08469250805285 3.5 L 113.08469250805285 0 L 106.08469250805285 -3.5 L 106.08469250805285 -0.5 L 97.80992437902643 -0.5 Z"/><text text-anchor="middle" pointer-events="none" font-size="8px" fill="#000000" x="65.54234625402643" y="3" transform="rotate(180 65.54234625402643 0)" font-family="sans-serif">OPERATED_BY</text></g></g><g class="layer nodes"><g class="node" transform="translate(53.5591443319709,161.60879970363948)"><circle class="outline" cx="0" cy="0" r="25" fill="#FFC454" stroke="#d7a013" stroke-width="2px"/><text text-anchor="middle" pointer-events="none" font-family="sans-serif" dy="1.5625" font-size="25" fill="#2A2C34"/><text text-anchor="middle" pointer-events="none" x="0" y="5" font-size="10px" fill="#2A2C34" font-family="sans-serif"> meteorol…</text></g><g class="node" transform="translate(129.9475401020038,65.48556267422306)"><circle class="outline" cx="0" cy="0" r="25" fill="#DA7194" stroke="#cc3c6c" stroke-width="2px"/><text text-anchor="middle" pointer-events="none" font-family="sans-serif" dy="1.5625" font-size="25" fill="#FFFFFF"/><text text-anchor="middle" pointer-events="none" x="0" y="5" font-size="10px" fill="#FFFFFF" font-family="sans-serif"> </text></g><g class="node" transform="translate(242.688964795002,83.36600772542826)"><circle class="outline" cx="0" cy="0" r="25" fill="#569480" stroke="#447666" stroke-width="2px"/><text text-anchor="middle" pointer-events="none" font-family="sans-serif" dy="1.5625" font-size="25" fill="#FFFFFF"/><text text-anchor="middle" pointer-events="none" font-family="sans-serif" dy="1.5625" font-size="25" fill="#FFFFFF"/><text text-anchor="middle" pointer-events="none" x="0" y="0" font-size="10px" fill="#FFFFFF" font-family="sans-serif"> January</text><text text-anchor="middle" pointer-events="none" x="0" y="10" font-size="10px" fill="#FFFFFF" font-family="sans-serif"> 26, 2020</text></g><g class="node" transform="translate(192.44271724542227,183.14401954035208)"><circle class="outline" cx="0" cy="0" r="25" fill="#A5ABB6" stroke="#9AA1AC" stroke-width="2px"/><text text-anchor="middle" pointer-events="none" font-family="sans-serif" dy="1.5625" font-size="25" fill="#FFFFFF"/><text text-anchor="middle" pointer-events="none" font-family="sans-serif" dy="1.5625" font-size="25" fill="#FFFFFF"/><text text-anchor="middle" pointer-events="none" font-family="sans-serif" dy="1.5625" font-size="25" fill="#FFFFFF"/><text text-anchor="middle" pointer-events="none" font-family="sans-serif" dy="1.5625" font-size="25" fill="#FFFFFF"/><text text-anchor="middle" pointer-events="none" x="0" y="-10" font-size="10px" fill="#FFFFFF" font-family="sans-serif"> 0946</text><text text-anchor="middle" pointer-events="none" x="0" y="0" font-size="10px" fill="#FFFFFF" font-family="sans-serif"> Pacific</text><text text-anchor="middle" pointer-events="none" x="0" y="10" font-size="10px" fill="#FFFFFF" font-family="sans-serif"> standard</text><text text-anchor="middle" pointer-events="none" x="0" y="20" font-size="10px" fill="#FFFFFF" font-family="sans-serif"> time</text></g><g class="node" transform="translate(316.14045362946064,-26.604400548691324)"><circle class="outline" cx="0" cy="0" r="25" fill="#A5ABB6" stroke="#9AA1AC" stroke-width="2px"/><text text-anchor="middle" pointer-events="none" font-family="sans-serif" dy="1.5625" font-size="25" fill="#FFFFFF"/><text text-anchor="middle" pointer-events="none" x="0" y="5" font-size="10px" fill="#FFFFFF" font-family="sans-serif"> Calabas…</text></g><g class="node" transform="translate(186.81827921362546,-51.44321027273512)"><circle class="outline" cx="0" cy="0" r="25" fill="#A5ABB6" stroke="#9AA1AC" stroke-width="2px"/><text text-anchor="middle" pointer-events="none" font-family="sans-serif" dy="1.5625" font-size="25" fill="#FFFFFF"/><text text-anchor="middle" pointer-events="none" font-family="sans-serif" dy="1.5625" font-size="25" fill="#FFFFFF"/><text text-anchor="middle" pointer-events="none" font-family="sans-serif" dy="1.5625" font-size="25" fill="#FFFFFF"/><text text-anchor="middle" pointer-events="none" x="0" y="-5" font-size="10px" fill="#FFFFFF" font-family="sans-serif"> risk</text><text text-anchor="middle" pointer-events="none" x="0" y="5" font-size="10px" fill="#FFFFFF" font-family="sans-serif"> analysis</text><text text-anchor="middle" pointer-events="none" x="0" y="15" font-size="10px" fill="#FFFFFF" font-family="sans-serif"> form</text></g><g class="node" transform="translate(-16.282361948242425,-44.745531827984486)"><circle class="outline" cx="0" cy="0" r="25" fill="#A5ABB6" stroke="#9AA1AC" stroke-width="2px"/><text text-anchor="middle" pointer-events="none" font-family="sans-serif" dy="1.5625" font-size="25" fill="#FFFFFF"/><text text-anchor="middle" pointer-events="none" x="0" y="5" font-size="10px" fill="#FFFFFF" font-family="sans-serif"> pilot</text></g><g class="node" transform="translate(20.718486530717122,78.17248655667444)"><circle class="outline" cx="0" cy="0" r="25" fill="#A5ABB6" stroke="#9AA1AC" stroke-width="2px"/><text text-anchor="middle" pointer-events="none" font-family="sans-serif" dy="1.5625" font-size="25" fill="#FFFFFF"/><text text-anchor="middle" pointer-events="none" font-family="sans-serif" dy="1.5625" font-size="25" fill="#FFFFFF"/><text text-anchor="middle" pointer-events="none" x="0" y="0" font-size="10px" fill="#FFFFFF" font-family="sans-serif"> Sikorsky</text><text text-anchor="middle" pointer-events="none" x="0" y="10" font-size="10px" fill="#FFFFFF" font-family="sans-serif"> S-76B</text></g><g class="node" transform="translate(-95.8621875106051,-5.198499691799775)"><circle class="outline" cx="0" cy="0" r="25" fill="#A5ABB6" stroke="#9AA1AC" stroke-width="2px"/><text text-anchor="middle" pointer-events="none" font-family="sans-serif" dy="1.5625" font-size="25" fill="#FFFFFF"/><text text-anchor="middle" pointer-events="none" x="0" y="5" font-size="10px" fill="#FFFFFF" font-family="sans-serif"> destroyed</text></g><g class="node" transform="translate(-115.44711035063796,101.11398892656764)"><circle class="outline" cx="0" cy="0" r="25" fill="#A5ABB6" stroke="#9AA1AC" stroke-width="2px"/><text text-anchor="middle" pointer-events="none" font-family="sans-serif" dy="1.5625" font-size="25" fill="#FFFFFF"/><text text-anchor="middle" pointer-events="none" font-family="sans-serif" dy="1.5625" font-size="25" fill="#FFFFFF"/><text text-anchor="middle" pointer-events="none" font-family="sans-serif" dy="1.5625" font-size="25" fill="#FFFFFF"/><text text-anchor="middle" pointer-events="none" x="0" y="-5" font-size="10px" fill="#FFFFFF" font-family="sans-serif"> Island</text><text text-anchor="middle" pointer-events="none" x="0" y="5" font-size="10px" fill="#FFFFFF" font-family="sans-serif"> Express</text><text text-anchor="middle" pointer-events="none" x="0" y="15" font-size="10px" fill="#FFFFFF" font-family="sans-serif"> Helico…</text></g><g class="node" transform="translate(-60.12627872414346,203.3385942019383)"><circle class="outline" cx="0" cy="0" r="25" fill="#A5ABB6" stroke="#9AA1AC" stroke-width="2px"/><text text-anchor="middle" pointer-events="none" font-family="sans-serif" dy="1.5625" font-size="25" fill="#FFFFFF"/><text text-anchor="middle" pointer-events="none" font-family="sans-serif" dy="1.5625" font-size="25" fill="#FFFFFF"/><text text-anchor="middle" pointer-events="none" x="0" y="0" font-size="10px" fill="#FFFFFF" font-family="sans-serif"> Weather</text><text text-anchor="middle" pointer-events="none" x="0" y="10" font-size="10px" fill="#FFFFFF" font-family="sans-serif"> conditio…</text></g></g></svg>